<?xml version="1.0" standalone="no"?>
<svg
  width="600"
  height="600"
  viewBox="0 0 600 600"
  xmlns="http://www.w3.org/2000/svg"
>
  <g transform="translate(300,300)">
    <path d="M102.1,-172.3C128.4,-141.9,143.4,-107.1,164.2,-71.9C185,-36.8,211.8,-1.2,211.4,33.3C210.9,67.8,183.3,101.4,153.7,130.2C124.1,159,92.5,183.1,54.4,202.1C16.2,221,-28.4,234.8,-51.6,211.6C-74.8,188.4,-76.7,128.2,-87.2,90.1C-97.6,51.9,-116.6,35.7,-127.6,13.3C-138.6,-9,-141.6,-37.5,-138.3,-70.8C-135,-104,-125.3,-142,-101.2,-173.5C-77.1,-205,-38.6,-230,-0.4,-229.4C37.8,-228.9,75.7,-202.8,102.1,-172.3Z" fill="rgba(204,204,204,.5)" />
  </g>
</svg>
