<?xml version="1.0" standalone="no"?>
<svg
  width="600"
  height="600"
  viewBox="0 0 600 600"
  xmlns="http://www.w3.org/2000/svg"
>
  <g transform="translate(300,300)">
    <path d="M72.7,-131.6C98.2,-96.7,125.5,-83.3,130.2,-62.5C134.9,-41.8,116.9,-13.8,111.4,15.1C105.8,44,112.6,73.7,103.3,95.8C94,117.9,68.5,132.4,38.9,148.4C9.2,164.4,-24.7,182,-50.1,173.3C-75.6,164.7,-92.6,129.8,-114.2,101.1C-135.7,72.3,-161.9,49.7,-182.1,16.3C-202.4,-17.1,-216.7,-61.3,-207.3,-99.9C-197.8,-138.5,-164.6,-171.5,-126.1,-200.4C-87.6,-229.3,-43.8,-254.1,-10.1,-238.4C23.6,-222.7,47.2,-166.5,72.7,-131.6Z" fill="rgba(238,238,238,.5)" />
  </g>
</svg>
