<?xml version="1.0" standalone="no"?>
<svg
  width="600"
  height="600"
  viewBox="0 0 600 600"
  xmlns="http://www.w3.org/2000/svg"
>
  <g transform="translate(300,300)">
    <path d="M120.3,-185.4C156,-164.3,184.9,-131,188.8,-94.4C192.7,-57.9,171.6,-18.1,150,10.4C128.5,38.9,106.6,56.1,89.6,80.2C72.7,104.2,60.7,135.1,36.3,157.9C11.9,180.7,-24.9,195.4,-49.4,181.9C-73.9,168.5,-86.1,126.8,-118.5,97.9C-151,69,-203.7,53,-220.2,23.7C-236.7,-5.5,-217,-47.8,-188,-75.3C-159,-102.7,-120.6,-115.3,-87.7,-137.6C-54.8,-159.9,-27.4,-192,7.5,-203.6C42.4,-215.2,84.7,-206.5,120.3,-185.4Z" fill="rgba(255,255,255,.5)" />
  </g>
</svg>
