<svg id="Capa_1" enable-background="new 0 0 512 512" height="512" viewBox="0 0 512 512" width="512" xmlns="http://www.w3.org/2000/svg"><g><path d="m450.821 409.468-14.323-28.712c-1.842-3.695-6.329-5.192-10.025-3.352-3.695 1.842-5.195 6.331-3.352 10.025l14.323 28.712c.873 1.751 1.012 3.736.391 5.592-.62 1.855-1.925 3.357-3.676 4.231l-140.959 70.318c-3.613 1.801-8.021.33-9.824-3.284l-38.107-76.39c-2.4-4.852-8.045-7.647-13.338-6.341l-57.86 16.568c-8.531 2.443-17.674 1.758-25.747-1.933-13.192-6.029-21.737-19.297-21.769-33.802l-.044-19.271c-.006-2.663-1.428-5.121-3.734-6.455l-10.381-6.002c-3.805-1.917.159-7.547.841-10.169.907-2.346 1.319-4.808 1.223-7.317l-.56-14.757c-.152-3.999-2.622-7.611-6.287-9.2l-29.042-12.618c-1.988-.864-3.505-2.457-4.27-4.486-.765-2.028-.678-4.226.245-6.187l29.339-62.334c1.764-3.748 2.112-7.986.981-11.933-4.125-14.385-6.216-29.341-6.216-44.451 0-69.23 44.056-130.56 109.628-152.612 3.913-1.316 6.018-5.555 4.702-9.467-1.316-3.914-5.553-6.018-9.467-4.702-71.664 24.1-119.812 91.124-119.812 166.782 0 16.504 2.286 32.845 6.794 48.571.133.463.085.977-.136 1.446l-29.339 62.334c-2.66 5.652-2.911 11.983-.708 17.828 2.204 5.846 6.574 10.435 12.302 12.923l26.454 11.493.453 11.938c.192.955-2.262 6.371-2.542 7.341-3.285 8.49.052 17.96 7.933 22.519l6.658 3.849.034 14.97c.046 20.325 12.019 38.917 30.505 47.366 11.311 5.169 24.125 6.13 36.078 2.708l54.816-15.697 36.995 74.162c3.895 7.806 11.784 12.328 19.967 12.328 3.337 0 6.724-.752 9.907-2.341l140.96-70.318c5.324-2.656 9.295-7.226 11.182-12.869 1.887-5.641 1.463-11.681-1.193-17.004z"/><path d="m238.71 16.294c7.259-.941 14.669-1.395 22.058-1.34 88.252.613 159.949 72.927 159.824 161.2-.055 39.047-14.275 76.692-40.043 105.998-3.854 4.385-4.661 10.593-2.055 15.817l30.078 60.294c1.849 3.731 6.411 5.179 10.025 3.352 3.695-1.842 5.195-6.331 3.352-10.025l-29.882-59.9c27.977-31.982 43.414-72.988 43.474-115.515.137-96.471-78.219-175.5-174.669-176.171-8.061-.058-16.156.437-24.083 1.465-4.095.53-6.983 4.28-6.452 8.373.531 4.095 4.278 6.992 8.373 6.452z"/><path d="m225.169 208.12c2.783 2.275 4.378 5.618 4.378 9.174v.576c0 9.487 1.951 18.963 5.66 27.693-.737 1.368-1.157 2.931-1.157 4.59v19.944c0 18.509 15.058 33.567 33.567 33.567 18.508 0 33.566-15.058 33.566-33.567v-19.944c0-1.76-.478-3.407-1.3-4.832 3.803-8.823 5.803-18.412 5.803-28.025 0-3.552 1.618-6.914 4.438-9.226 15.632-12.809 24.597-31.735 24.597-51.922 0-4.379-.426-8.762-1.266-13.029-.796-4.05-4.717-6.688-8.778-5.889-4.05.797-6.687 4.727-5.889 8.778.653 3.317.984 6.729.984 10.141 0 15.689-6.97 30.4-19.123 40.359-6.299 5.162-9.912 12.739-9.912 20.788 0 7.963-1.746 15.904-5.048 23.148h-10.597v-36.854l19.258-22.98c2.652-3.164 2.237-7.879-.928-10.53-3.164-2.653-7.879-2.236-10.53.928l-15.276 18.228-15.277-18.228c-2.651-3.164-7.366-3.581-10.53-.928-3.164 2.651-3.58 7.366-.928 10.53l19.259 22.981v36.853h-10.865c-3.132-7.085-4.781-14.825-4.781-22.573v-.576c0-8.061-3.596-15.623-9.865-20.748-12.246-10.01-19.232-24.812-19.169-40.61.113-28.245 23.175-51.543 51.408-51.936.252-.003.503-.005.754-.005 14.091 0 27.264 5.513 37.163 15.571 2.897 2.943 7.63 2.979 10.571.085 2.942-2.896 2.98-7.629.085-10.571-12.965-13.172-30.285-20.319-48.781-20.027-36.33.506-66.004 30.483-66.149 66.824-.08 20.323 8.908 39.365 24.658 52.242zm61.064 61.976c0 10.265-8.351 18.617-18.616 18.617s-18.617-8.352-18.617-18.617v-14.703h37.233z"/><path d="m182.617 160.265c0-4.129-3.346-7.475-7.475-7.475h-21.457c-4.129 0-7.475 3.346-7.475 7.475s3.346 7.475 7.475 7.475h21.457c4.129 0 7.475-3.346 7.475-7.475z"/><path d="m228.537 77.863c1.215 2.835 3.974 4.533 6.874 4.533 5.22.101 9.048-5.635 6.867-10.421l-7.586-17.7c-1.625-3.795-6.02-5.554-9.815-3.926-3.795 1.626-5.553 6.021-3.926 9.815z"/><path d="m192.812 108.734c2.592-3.213 2.09-7.92-1.123-10.511l-15.461-12.475c-3.215-2.593-7.921-2.09-10.511 1.123-2.592 3.213-2.09 7.92 1.123 10.511l15.461 12.475c3.191 2.58 7.906 2.104 10.511-1.123z"/><path d="m360.091 167.74h21.457c4.129 0 7.475-3.346 7.475-7.475s-3.346-7.475-7.475-7.475h-21.457c-4.129 0-7.475 3.346-7.475 7.475s3.346 7.475 7.475 7.475z"/><path d="m300.541 54.275-7.586 17.7c-1.626 3.794.131 8.188 3.926 9.815 3.701 1.614 8.188-.094 9.815-3.926l7.586-17.7c1.626-3.794-.131-8.188-3.926-9.815-3.793-1.628-8.188.132-9.815 3.926z"/><path d="m369.518 86.872c-2.591-3.214-7.298-3.717-10.51-1.124l-15.462 12.475c-3.214 2.592-3.717 7.298-1.124 10.51 2.604 3.228 7.32 3.704 10.51 1.124l15.462-12.475c3.214-2.591 3.717-7.297 1.124-10.51z"/></g></svg>