<?xml version="1.0" encoding="iso-8859-1"?>
<!-- Generator: Adobe Illustrator 19.0.0, SVG Export Plug-In . SVG Version: 6.00 Build 0)  -->
<svg version="1.1" id="Layer_1" xmlns="http://www.w3.org/2000/svg" xmlns:xlink="http://www.w3.org/1999/xlink" x="0px" y="0px"
	 viewBox="0 0 512 512" style="enable-background:new 0 0 512 512;" xml:space="preserve">
<g>
	<g>
		<path d="M403.513,192.551h-23.529l4.875-14.571c1.314-3.929-0.805-8.179-4.732-9.493c-3.932-1.319-8.18,0.805-9.493,4.732
			l-6.468,19.331h-48.157c1.967-5.877,18.917-56.543,22.13-66.145c12.833,8.264,27.95,12.752,44.007,12.405l-3.351,10.017
			c-1.314,3.929,0.805,8.179,4.732,9.493c3.931,1.316,8.179-0.804,9.493-4.732l5.709-17.066
			c51.157-13.073,68.451-72.685,33.282-111.532c-3.853-4.256-10.86-2.769-12.673,2.653l-17.487,52.272l-25.838,5.258L358.54,65.427
			L377.124,9.88c0.796-2.379,0.351-4.997-1.188-6.979c-1.538-1.98-3.968-3.059-6.466-2.882
			c-60.227,4.349-86.664,73.489-43.796,116.363l-13.816,41.296c-102.667,2.477-89.331,42.645-154.718,50.997
			c-1.849-9.185-9.977-16.123-19.698-16.123H81.631c-11.081,0-20.096,9.015-20.096,20.096V345.24
			c0,11.081,9.015,20.096,20.096,20.096h55.811c10.236,0,18.692-7.698,19.925-17.606c34.414,2.285,37.349,13.901,85.192,17.091
			l-3.036,9.074c-26.256,3.687-48.239,21.042-56.424,45.509c-7.671,22.931-1.879,48.837,15.115,67.608
			c3.843,4.246,10.856,2.779,12.673-2.653l17.488-52.274l25.836-5.257l17.472,19.748L253.1,502.12
			c-1.687,5.042,2.283,10.239,7.653,9.861c56.503-4.077,84.59-65.979,49.233-110.205l12.315-36.805h39.313
			c14.985,0,27.177-12.192,27.177-27.179c0-5.056-1.389-9.795-3.803-13.854c15.94-5.901,22.612-24.82,13.967-39.355
			c15.94-5.9,22.612-24.819,13.967-39.355c10.363-3.836,17.769-13.818,17.769-25.499
			C430.691,204.744,418.499,192.551,403.513,192.551z M358.928,16.981L342.94,64.773c-0.851,2.541-0.28,5.343,1.495,7.351
			l23.211,26.233c1.776,2.006,4.488,2.911,7.113,2.38l34.325-6.985c2.626-0.534,4.768-2.429,5.617-4.97l14.214-42.486
			c7.067,12.905,8.613,27.711,3.985,41.543c-15.458,46.202-83.19,47.857-106.707,4.421
			C309.689,61.776,325.521,26.241,358.928,16.981z M307.997,461.185c-5.544,16.569-19.374,29.029-36.701,33.832l15.988-47.791
			c0.851-2.541,0.28-5.343-1.495-7.351l-23.211-26.235c-1.812-2.047-4.546-2.904-7.113-2.38l-34.324,6.984
			c-2.626,0.534-4.767,2.429-5.617,4.97l-14.214,42.487c-23.707-43.301,19.06-90.836,68.5-74.294
			C300.171,401.574,317.494,432.791,307.997,461.185z M255.518,373.363l2.68-8.011c0,0,6.276-0.382,48.285-0.382l-8.352,24.962
			C285.651,380.032,270.556,374.456,255.518,373.363z M403.514,231.906c-10.708,0-79.305,0-90.11,0
			c-4.143,0-7.501,3.357-7.501,7.501s3.357,7.501,7.501,7.501h76.145c6.714,0,12.176,5.461,12.176,12.175
			c0,6.716-5.462,12.179-12.176,12.179c-28.751,0-47.53,0-76.145,0c-4.143,0-7.501,3.357-7.501,7.501
			c0,4.143,3.357,7.501,7.501,7.501h62.177c6.714,0,12.177,5.461,12.177,12.175c0,6.716-5.462,12.179-12.177,12.179
			c-6.415,0-55.808,0-62.177,0c-4.143,0-7.501,3.357-7.501,7.501c0,4.142,3.357,7.501,7.501,7.501h48.211
			c6.714,0,12.176,5.461,12.176,12.175c0,6.714-5.462,12.178-12.176,12.178c-0.487,0-91.113-0.015-91.599,0.023
			c-0.418,0.032-42.384,3.156-77.335-10.692c-1.322-0.519-16.356-5.473-35.145-6.594v-76.321c0-4.143-3.358-7.501-7.501-7.501
			s-7.501,3.357-7.501,7.501v88.854c0,2.809-2.285,5.094-5.094,5.094H81.631c-2.809,0-5.094-2.285-5.094-5.094V212.646
			c0-2.809,2.285-5.094,5.094-5.094h55.811c2.809,0,5.094,2.285,5.094,5.094v20.736c0,4.143,3.358,7.501,7.501,7.501
			s7.501-3.357,7.501-7.501v-9.625c70.648-8.032,56.75-47.339,149.248-50.916l-8.308,24.83c-0.766,2.288-0.384,4.804,1.025,6.763
			c1.409,1.958,3.675,3.118,6.088,3.118c49.607,0,48.011,0,97.924,0c6.715,0,12.177,5.462,12.177,12.177
			C415.691,226.444,410.229,231.906,403.514,231.906z"/>
	</g>
</g>
<g>
</g>
<g>
</g>
<g>
</g>
<g>
</g>
<g>
</g>
<g>
</g>
<g>
</g>
<g>
</g>
<g>
</g>
<g>
</g>
<g>
</g>
<g>
</g>
<g>
</g>
<g>
</g>
<g>
</g>
</svg>
