<?xml version="1.0" encoding="iso-8859-1"?>
<!-- Generator: Adobe Illustrator 19.0.0, SVG Export Plug-In . SVG Version: 6.00 Build 0)  -->
<svg version="1.1" id="Capa_1" xmlns="http://www.w3.org/2000/svg" xmlns:xlink="http://www.w3.org/1999/xlink" x="0px" y="0px"
	 viewBox="0 0 512 512" style="enable-background:new 0 0 512 512;" xml:space="preserve" fill="white">
<g>
	<g>
		<polygon points="151.51,83.592 151.51,183.756 167.184,183.756 167.184,99.265 334.367,99.265 334.367,219.429 209.68,219.429
			209.68,235.102 350.041,235.102 350.041,83.592 		"/>
	</g>
</g>
<g>
	<g>
		<path d="M167.967,195.918c-15.845,0-28.735,12.89-28.735,28.735c0,13.127,8.852,24.219,20.898,27.64v45.503h15.673v-45.503
			c12.046-3.421,20.898-14.513,20.898-27.64C196.702,208.808,183.812,195.918,167.967,195.918z M167.967,237.714
			c-7.202,0-13.061-5.859-13.061-13.061c0-7.203,5.859-13.061,13.061-13.061c7.203,0,13.061,5.859,13.061,13.061
			C181.029,231.856,175.17,237.714,167.967,237.714z"/>
	</g>
</g>
<g>
	<g>
		<path d="M226.482,276.898c-11.523,0-20.898,9.375-20.898,20.898c0,11.523,9.375,20.898,20.898,20.898s20.898-9.375,20.898-20.898
			C247.38,286.273,238.005,276.898,226.482,276.898z M226.482,303.02c-2.881,0-5.224-2.344-5.224-5.224
			c0-2.881,2.344-5.224,5.224-5.224s5.224,2.344,5.224,5.224C231.706,300.677,229.362,303.02,226.482,303.02z"/>
	</g>
</g>
<g>
	<g>
		<path d="M273.502,276.898c-11.523,0-20.898,9.375-20.898,20.898c0,11.523,9.375,20.898,20.898,20.898
			c11.523,0,20.898-9.375,20.898-20.898C294.4,286.273,285.025,276.898,273.502,276.898z M273.502,303.02
			c-2.881,0-5.224-2.344-5.224-5.224c0-2.881,2.344-5.224,5.224-5.224c2.881,0,5.225,2.344,5.225,5.224
			C278.727,300.677,276.383,303.02,273.502,303.02z"/>
	</g>
</g>
<g>
	<g>
		<path d="M52.245,0v67.918h67.918v187.77l-67.918,78.367V512h253.388h7.837h146.286V0H52.245z M329.143,15.673h36.571v36.571
			h-36.571V15.673z M67.918,52.245V15.673h245.551v36.571H120.163H67.918z M297.796,496.327H67.918v-151.51h229.878V496.327z
			 M302.054,329.143H77.244l54.335-62.694h15.491v-15.673h-11.233V67.918h229.878v182.857H188.865v15.673h167.523L302.054,329.143z
			 M444.082,496.327H313.469V339.903l67.918-78.367V15.673h62.694V496.327z"/>
	</g>
</g>
<g>
	<g>
		<rect x="256" y="368.327" width="15.673" height="41.796"/>
	</g>
</g>
<g>
</g>
<g>
</g>
<g>
</g>
<g>
</g>
<g>
</g>
<g>
</g>
<g>
</g>
<g>
</g>
<g>
</g>
<g>
</g>
<g>
</g>
<g>
</g>
<g>
</g>
<g>
</g>
<g>
</g>
</svg>
