<?xml version="1.0"?>
<svg xmlns="http://www.w3.org/2000/svg" id="outline" viewBox="0 0 512 512" width="512" height="512"><rect x="160" y="416" width="80" height="16"/><rect x="256" y="416" width="56" height="16"/><rect x="160" y="368" width="24" height="16"/><rect x="200" y="368" width="80" height="16"/><rect x="160" y="320" width="64" height="16"/><rect x="352" y="240" width="16" height="16"/><rect x="320" y="192" width="48" height="16"/><path d="M112,281.9939V464a32.03635,32.03635,0,0,0,32,32H384a32.053,32.053,0,0,0,30.46582-22.22021l3.87695,3.877,6.0586,6.05908a41.94131,41.94131,0,1,0,59.31445-59.31348l-6.05859-6.05908L416,356.686V169.94092a31.78934,31.78934,0,0,0-9.37207-22.627l-65.94141-65.9414A31.79119,31.79119,0,0,0,318.05859,72H261.90918A135.89844,135.89844,0,0,0,152,16C77.00977,16,16,77.00928,16,152,16,213.0752,56.46973,264.87219,112,281.9939ZM400,464a16.01833,16.01833,0,0,1-16,16H144a16.01833,16.01833,0,0,1-16-16V285.87915a135.96443,135.96443,0,0,0,98.44385-20.12146L240.031,279.345a7.97806,7.97806,0,0,0,2.31176,6.31177l18.34327,18.3435-2.34327,2.343a8,8,0,0,0,0,11.31348L260.686,320H240v16h36.686l32,32H296v16h28.686l32,32H328v16h44.686L400,459.314ZM250,266.686l-10.5874-10.58741a137.20484,137.20484,0,0,0,16.686-16.686L266.686,250Zm30-7.37256L292.686,272,272,292.68628,259.31348,280ZM472.40137,435.71582a25.94094,25.94094,0,0,1-36.68555,36.68652l-.40234-.4021L472,435.31421ZM460.68652,424,424,460.686,275.31348,312,312,275.314ZM318.05859,88A16.20469,16.20469,0,0,1,320,88.12939V144a24.02718,24.02718,0,0,0,24,24h24V152H344a8.00917,8.00917,0,0,1-8-8V99.314l59.31348,59.31348A15.89354,15.89354,0,0,1,400,169.94092V340.686l-82.34277-82.34278a8.00122,8.00122,0,0,0-11.31446,0L304,260.686,299.314,256H336V240H280v.00024c-.21826,0-.43652.01343-.6543.03125l-13.58789-13.58776A135.90751,135.90751,0,0,0,275.92871,208H304V192H281.99414a135.93333,135.93333,0,0,0-10.0249-104ZM152,32A120,120,0,1,1,32,152,120.13623,120.13623,0,0,1,152,32Z"/><path d="M152,256A104,104,0,1,0,48,152,104.11791,104.11791,0,0,0,152,256Zm88-104c0,2.697-.12891,5.36414-.36743,8H192v16h44.67334a87.61857,87.61857,0,0,1-10.95361,24H128v16h84.33276A87.82423,87.82423,0,0,1,104,225.71973V136a16.01833,16.01833,0,0,1,16-16H233.97583A87.54792,87.54792,0,0,1,240,152ZM152,64a87.99525,87.99525,0,0,1,73.71973,40H120a32.03635,32.03635,0,0,0-32,32v76.33276A87.95283,87.95283,0,0,1,152,64Z"/><rect x="128" y="160" width="48" height="16"/></svg>
