<svg id="Layer_5" enable-background="new 0 0 64 64" height="512" viewBox="0 0 64 64" width="512" xmlns="http://www.w3.org/2000/svg"><g><path d="m63 1h-32v6.919l-4.981 3.985c-.884.707-1.993 1.096-3.123 1.096h-.006c1.3-1.272 2.11-3.042 2.11-5 0-3.859-3.14-7-7-7s-7 3.141-7 7c0 1.987.836 3.779 2.17 5.054-3.469.412-6.17 3.368-6.17 6.946v5h-6v24h4v3.003h2v-4c0-.552.449-1 1-1h10c.551 0 1 .448 1 1v4h2v-4c0-1.305-.842-2.406-2.007-2.818.001-.061.007-.121.007-.182 0-.503-.069-.988-.186-1.455.502.279 1.071.452 1.686.452 1.93 0 3.5-1.569 3.5-3.499v-13.501h7v4h11.826l-4.585 5.35 1.519 1.301 5.7-6.65h.54v6h2v-6h.54l5.7 6.65 1.519-1.301-4.585-5.35h7.826v16h-2.185c-.173-.485-.465-.908-.845-1.241.014-.252.03-.503.03-.756 0-3.309-2.691-6-6-6s-6 2.691-6 6c-1.654 0-3 1.346-3 3v4h2v-4c0-.552.449-1 1-1h10c.551 0 1 .448 1 1v4h2v-3.003h4v-18h2zm-13 40.003c2.206 0 4 1.794 4 4h-8c0-2.206 1.794-4 4-4zm-37-33.003c0-2.757 2.243-5 5-5s5 2.243 5 5-2.243 5-5 5-5-2.243-5-5zm-7.815 39h-2.185v-20h4c0 2.206 1.794 4 4 4h1v8.093c-2.833.478-5 2.942-5 5.91 0 .061.006.121.007.182-.849.3-1.518.967-1.822 1.815zm7.815-5.997c2.206 0 4 1.794 4 4h-8c0-2.206 1.794-4 4-4zm9-17.051-.001 16.549c0 .826-.673 1.499-1.5 1.499s-1.499-.673-1.499-1.5v-11.5h-2v11.5c0 .016.005.031.005.048-.828-.745-1.861-1.261-3.005-1.455v-17.093h-2v7h-1c-1.103 0-2-.897-2-2v-7c0-2.757 2.243-5 5-5h8.896c1.583 0 3.136-.545 4.373-1.533l7.615-6.093c.3-.241.679-.374 1.067-.374h.049.29c.943 0 1.71.768 1.71 1.71 0 .518-.23 1.001-.631 1.327l-14.261 11.586c-.704.573-1.108 1.422-1.108 2.329zm29-8.952v-4h6v6h-12v-2zm-2-2h-12.106l1.736-1.41c.87-.708 1.37-1.758 1.37-2.88 0-.62-.167-1.196-.437-1.71h9.437zm-25 12v-1.048c0-.303.135-.586.369-.776l6.631-5.387v7.211zm37 4h-28v-12.836l1.432-1.164h8.568v4h16v-10h-8v-4h-14.71-.29-.049c-.84 0-1.663.289-2.317.813l-.634.506v-3.319h28z"/><path d="m18.993 55.182c.001-.061.007-.121.007-.182 0-3.309-2.691-6-6-6s-6 2.691-6 6c0 .061.006.121.007.182-1.165.412-2.007 1.513-2.007 2.818v5h16v-5c0-1.305-.842-2.406-2.007-2.818zm-5.993-4.182c2.206 0 4 1.794 4 4h-8c0-2.206 1.794-4 4-4zm6 10h-12v-3c0-.552.449-1 1-1h10c.551 0 1 .448 1 1z"/><path d="m36.993 55.182c.001-.061.007-.121.007-.182 0-3.309-2.691-6-6-6s-6 2.691-6 6c0 .061.006.121.007.182-1.165.412-2.007 1.513-2.007 2.818v5h16v-5c0-1.305-.842-2.406-2.007-2.818zm-5.993-4.182c2.206 0 4 1.794 4 4h-8c0-2.206 1.794-4 4-4zm6 10h-12v-3c0-.552.449-1 1-1h10c.551 0 1 .448 1 1z"/><path d="m54.993 55.182c.001-.061.007-.121.007-.182 0-3.309-2.691-6-6-6s-6 2.691-6 6c0 .061.006.121.007.182-1.165.412-2.007 1.513-2.007 2.818v5h16v-5c0-1.305-.842-2.406-2.007-2.818zm-5.993-4.182c2.206 0 4 1.794 4 4h-8c0-2.206 1.794-4 4-4zm6 10h-12v-3c0-.552.449-1 1-1h10c.551 0 1 .448 1 1z"/><path d="m37.97 45.759c.014-.252.03-.503.03-.756 0-3.309-2.691-6-6-6s-6 2.691-6 6c-1.654 0-3 1.346-3 3v4h2v-4c0-.552.449-1 1-1h10c.551 0 1 .448 1 1v4h2v-4c0-.897-.404-1.694-1.03-2.244zm-5.97-4.756c2.206 0 4 1.794 4 4h-8c0-2.206 1.794-4 4-4z"/><path d="m35 21h2v2h-2z"/><path d="m39 21h20v2h-20z"/><path d="m35 25h24v2h-24z"/></g></svg>