<?xml version="1.0"?>
<svg xmlns="http://www.w3.org/2000/svg" viewBox="0 0 64 64" width="512" height="512"><g id="Ranking-Trophy"><path d="M31.273,19.235,32,18.708l.727.527a1.969,1.969,0,0,0,2.351,0A1.969,1.969,0,0,0,35.8,17l-.277-.854.726-.529A2,2,0,0,0,35.078,12h-.9l-.278-.854a2,2,0,0,0-3.8,0L29.82,12h-.9a2,2,0,0,0-1.175,3.617l.726.529L28.2,17a2,2,0,0,0,3.077,2.235ZM30.547,14a1,1,0,0,0,.951-.691l.5-1.557,0,.012.5,1.545a1,1,0,0,0,.951.691h1.625l-1.315.955a1,1,0,0,0-.363,1.117l.5,1.546-1.314-.955a1,1,0,0,0-1.176,0l-1.314.954.5-1.545a1,1,0,0,0-.363-1.117L28.922,14Z"/><path d="M61,46H58V43a1,1,0,0,0-1-1H54V37.315A7,7,0,0,0,58,31V30h1a2.993,2.993,0,0,0,.78-5.884A2.99,2.99,0,0,0,57,20H45a2.99,2.99,0,0,0-2.78,4.116A2.993,2.993,0,0,0,43,30h1v1a7,7,0,0,0,4,6.315V42H45a1,1,0,0,0-1,1v3H43V41a1,1,0,0,0-1-1H40V37a1,1,0,0,0-1-1H38V31a1,1,0,0,0-1-1H35V24a7.006,7.006,0,0,0,6.92-6H43A5,5,0,0,0,43,8H42V7.816A2.993,2.993,0,0,0,41,2H23a2.993,2.993,0,0,0-1,5.816V8H21a5,5,0,0,0,0,10h1.08A7.006,7.006,0,0,0,29,24v6H27a1,1,0,0,0-1,1v5H25a1,1,0,0,0-1,1v3H22a1,1,0,0,0-1,1v5H20V43a1,1,0,0,0-1-1H16V37.315A7,7,0,0,0,20,31V30h1a2.993,2.993,0,0,0,.78-5.884A2.99,2.99,0,0,0,19,20H7a2.99,2.99,0,0,0-2.78,4.116A2.993,2.993,0,0,0,5,30H6v1a7,7,0,0,0,4,6.315V42H7a1,1,0,0,0-1,1v3H3a1,1,0,0,0-1,1V61a1,1,0,0,0,1,1H61a1,1,0,0,0,1-1V47A1,1,0,0,0,61,46ZM59,28H58V26h1a1,1,0,0,1,0,2ZM45,22H57a1,1,0,0,1,0,2H45a1,1,0,0,1,0-2Zm-2,6a1,1,0,0,1,0-2h1v2Zm3,3V26H56v5a5,5,0,0,1-10,0Zm4,6.92a6.29,6.29,0,0,0,2,0V42H50ZM46,44H56v2H46ZM43,10a3,3,0,0,1,0,6H42V10ZM23,4H41a1,1,0,0,1,0,2H23a1,1,0,0,1,0-2Zm-5,9a3,3,0,0,1,3-3h1v6H21A3,3,0,0,1,18,13Zm6,4V8H40v9a5.006,5.006,0,0,1-5,5H29A5.006,5.006,0,0,1,24,17Zm7,7h2v6H31Zm-3,8h8v4H28Zm-2,6H38v2H26ZM21,28H20V26h1a1,1,0,0,1,0,2ZM7,22H19a1,1,0,0,1,0,2H7a1,1,0,0,1,0-2ZM5,28a1,1,0,0,1,0-2H6v2Zm3,3V26H18v5A5,5,0,0,1,8,31Zm4,6.92a6.29,6.29,0,0,0,2,0V42H12ZM8,44H18v2H8ZM60,60H4V48H22a1,1,0,0,0,1-1V42H41v5a1,1,0,0,0,1,1H60Z"/><path d="M33,46a1,1,0,0,0-1.707-.707l-3,3,1.414,1.414L31,48.414V55H29v2h6V55H33Z"/></g></svg>
