<?xml version="1.0" encoding="iso-8859-1"?>
<!-- Generator: Adobe Illustrator 19.0.0, SVG Export Plug-In . SVG Version: 6.00 Build 0)  -->
<svg xmlns="http://www.w3.org/2000/svg" xmlns:xlink="http://www.w3.org/1999/xlink" version="1.1" id="Layer_1" x="0px" y="0px" viewBox="0 0 512 512" style="enable-background:new 0 0 512 512;" xml:space="preserve" width="512" height="512" fill="white">
<g>
	<g>
		<path d="M391.404,69.116c-2.434-3.353-7.122-4.1-10.475-1.668c-3.354,2.432-4.1,7.122-1.668,10.475    c18.908,26.069,28.902,56.929,28.902,89.241c0,31.007-9.17,61.45-26.519,88.04c-25.651,39.314-42.762,68.221-46.723,110.146    c-0.471,4.986-3.909,8.968-8.466,10.251c-0.304,0.053-0.602,0.125-0.892,0.214c-0.74,0.146-1.504,0.223-2.287,0.223H188.722    c-0.782,0-1.547-0.077-2.287-0.223c-0.29-0.089-0.588-0.16-0.892-0.214c-4.556-1.283-7.995-5.265-8.466-10.251    c-3.961-41.924-21.071-70.831-46.723-110.146c-17.349-26.589-26.519-57.033-26.519-88.04C103.836,83.26,172.097,15,256,15    c38.721,0,75.614,14.554,103.886,40.979c3.027,2.829,7.771,2.668,10.601-0.357c2.828-3.026,2.668-7.772-0.358-10.601    C339.069,15.989,298.538,0,256,0C163.825,0,88.836,74.989,88.836,167.164c0,33.925,10.013,67.203,28.956,96.236    c24.43,37.442,40.715,64.865,44.352,103.361c0.901,9.537,6.607,17.458,14.598,21.461v70.392c0,9.321,5.876,17.295,14.118,20.413    C191.594,497.334,206.715,512,225.198,512h61.604c18.483,0,33.604-14.666,34.339-32.972c8.242-3.118,14.118-11.092,14.118-20.413    v-70.392c7.991-4.004,13.697-11.924,14.598-21.461c3.637-38.497,19.922-65.919,44.352-103.361    c18.943-29.033,28.956-62.311,28.956-96.236C423.164,131.667,412.182,97.763,391.404,69.116z M238.736,420.174h81.522v13.686    H191.741v-13.686h16.997c4.143,0,7.5-3.358,7.5-7.5s-3.357-7.5-7.5-7.5h-16.997v-14.136h128.518v14.136h-81.522    c-4.143,0-7.5,3.358-7.5,7.5S234.594,420.174,238.736,420.174z M313.804,465.42c-0.045-0.001-0.09-0.002-0.135-0.002    c-0.032,0-0.064,0-0.096,0c-0.105,0.001-0.21,0.005-0.314,0.011H198.742c-0.105-0.005-0.21-0.009-0.316-0.011    c-0.079-0.001-0.159-0.001-0.238,0.001c-3.587-0.192-6.448-3.171-6.448-6.805v-9.755h128.518v9.755    C320.259,462.251,317.395,465.232,313.804,465.42z M286.802,497h-61.604c-9.729,0-17.806-7.212-19.166-16.57h99.935    C304.608,489.788,296.531,497,286.802,497z"/>
		<path d="M338.34,210.314c0.263-0.922,1.146-1.566,2.146-1.566h6.074c9.515,0,17.255-7.741,17.255-17.255v-11.117    c0-9.514-7.74-17.255-17.255-17.255h-6.496c-0.983,0-1.861-0.628-2.134-1.527c-1.702-5.623-3.997-11.096-6.821-16.268    c-0.466-0.852-0.301-1.937,0.399-2.638l4.659-4.658c3.259-3.259,5.054-7.592,5.054-12.201c0-4.609-1.795-8.942-5.054-12.201    l-7.861-7.861c-3.26-3.259-7.593-5.054-12.201-5.054c-4.609,0-8.942,1.795-12.202,5.054l-4.657,4.658    c-0.7,0.701-1.784,0.867-2.637,0.401c-5.167-2.822-10.641-5.118-16.268-6.823c-0.9-0.272-1.528-1.15-1.528-2.133v-6.496    c0-9.515-7.74-17.255-17.255-17.255h-11.117c-9.515,0-17.255,7.741-17.255,17.255v6.074c0,1.001-0.645,1.884-1.566,2.146    c-5.801,1.649-11.447,3.921-16.781,6.753c-0.832,0.442-1.896,0.266-2.589-0.427l-4.153-4.154    c-3.26-3.259-7.593-5.054-12.202-5.054c-4.608,0-8.941,1.795-12.201,5.054l-7.861,7.861c-3.259,3.259-5.054,7.592-5.054,12.201    c0,4.609,1.795,8.942,5.055,12.202l3.729,3.729c0.711,0.71,0.875,1.796,0.398,2.643c-3.06,5.443-5.526,11.222-7.332,17.178    c-0.274,0.907-1.174,1.541-2.187,1.541h-5.002c-9.515,0-17.255,7.741-17.255,17.255v11.117c0,9.514,7.74,17.255,17.255,17.255    h4.612c1.012,0,1.898,0.636,2.157,1.547c1.748,6.153,4.191,12.121,7.262,17.737c0.452,0.825,0.276,1.893-0.427,2.595l-3.212,3.212    c-3.259,3.259-5.054,7.592-5.054,12.201c0,4.609,1.795,8.942,5.055,12.201l7.86,7.86c3.259,3.26,7.593,5.055,12.201,5.055    c4.609,0,8.943-1.795,12.201-5.054l3.213-3.212c0.701-0.703,1.77-0.877,2.594-0.426c5.618,3.072,11.586,5.515,17.738,7.262    c0.91,0.258,1.546,1.146,1.546,2.157v4.612c0,9.515,7.74,17.255,17.255,17.255h11.117c9.515,0,17.255-7.741,17.255-17.255v-5.001    c0-1.013,0.634-1.912,1.541-2.188c5.958-1.806,11.737-4.273,17.178-7.333c0.847-0.474,1.933-0.31,2.643,0.4l3.729,3.729    c3.26,3.259,7.593,5.054,12.202,5.054c4.608,0,8.941-1.795,12.2-5.054l7.862-7.861c3.259-3.259,5.054-7.592,5.054-12.201    c0-4.609-1.795-8.942-5.054-12.201l-4.154-4.155c-0.692-0.693-0.868-1.758-0.427-2.59    C334.42,221.76,336.691,216.114,338.34,210.314z M323.912,206.212c-1.36,4.786-3.235,9.445-5.573,13.849    c-3.561,6.706-2.326,14.835,3.068,20.229l4.153,4.154c0.88,0.879,0.88,2.31,0.001,3.188l-7.862,7.861    c-0.878,0.878-2.309,0.879-3.188,0l-3.729-3.729c-5.447-5.446-13.919-6.627-20.602-2.868c-4.492,2.526-9.262,4.562-14.178,6.053    c-7.177,2.176-12.189,8.978-12.189,16.542v5.001c0,1.244-1.012,2.255-2.255,2.255h-11.117c-1.243,0-2.255-1.012-2.255-2.255    v-4.612c0-7.685-5.119-14.506-12.449-16.587c-5.076-1.441-10.001-3.458-14.639-5.993c-2.548-1.393-5.354-2.07-8.15-2.07    c-4.481,0-8.935,1.738-12.246,5.05l-3.213,3.212c-0.546,0.546-1.168,0.66-1.595,0.66c-0.426,0-1.048-0.114-1.595-0.661    l-7.86-7.861c-0.88-0.879-0.88-2.31,0-3.189l3.211-3.211c5.381-5.38,6.607-13.768,2.981-20.398    c-2.534-4.636-4.551-9.561-5.993-14.639c-2.082-7.33-8.902-12.449-16.587-12.449h-4.612c-1.243,0-2.255-1.012-2.255-2.255v-11.117    c0-1.243,1.012-2.255,2.255-2.255h5.002c7.563,0,14.366-5.012,16.542-12.189c1.489-4.914,3.526-9.685,6.052-14.178    c3.759-6.683,2.58-15.155-2.867-20.602l-3.729-3.729c-0.88-0.879-0.88-2.31,0-3.189l7.861-7.861c0.878-0.878,2.309-0.879,3.188,0    l4.154,4.154c5.396,5.395,13.523,6.63,20.23,3.068c4.402-2.337,9.062-4.212,13.848-5.573c7.339-2.086,12.465-8.902,12.465-16.575    v-6.074c0-1.244,1.012-2.255,2.255-2.255h11.117c1.243,0,2.255,1.012,2.255,2.255v6.496c0,7.656,4.895,14.282,12.179,16.489    c4.645,1.407,9.162,3.302,13.428,5.631c6.654,3.635,15.058,2.417,20.434-2.959l4.657-4.658c0.88-0.879,2.311-0.878,3.188,0    l7.861,7.861c0.88,0.879,0.88,2.31,0.001,3.188l-4.659,4.659c-5.375,5.376-6.592,13.778-2.958,20.433    c2.331,4.27,4.226,8.787,5.631,13.428c2.208,7.284,8.834,12.178,16.489,12.178h6.496c1.243,0,2.255,1.012,2.255,2.255v11.117    c0,1.243-1.012,2.255-2.255,2.255h-6.074C332.813,193.748,325.998,198.873,323.912,206.212z"/>
		<path d="M256,131.229c-30.164,0-54.704,24.541-54.704,54.705s24.54,54.705,54.704,54.705s54.704-24.541,54.704-54.705    S286.164,131.229,256,131.229z M256,225.639c-21.893,0-39.704-17.812-39.704-39.705s17.812-39.705,39.704-39.705    s39.704,17.812,39.704,39.705S277.893,225.639,256,225.639z"/>
	</g>
</g>















</svg>
