<svg height="512" viewBox="0 0 128 128" width="512" xmlns="http://www.w3.org/2000/svg" fill="white"><g id="Layer_2" data-name="Layer 2"><path d="m127.487 10.041-9.528-9.528a1.749 1.749 0 0 0 -2.475 0l-50.173 50.174-.1-.1a5.748 5.748 0 0 0 -8.132 0l-2.679 2.671a11.549 11.549 0 0 0 -14.96-1.205l-2.956 2.034-7.606 5.234-28.12 19.347a1.749 1.749 0 0 0 -.245 2.679l10.618 10.618a7.324 7.324 0 0 0 9.094.973l.912-.587-.741 2.74a8.674 8.674 0 0 0 2.235 8.374l24.022 24.022a1.749 1.749 0 0 0 1.238.513c.052 0 .106 0 .16-.007a1.751 1.751 0 0 0 1.281-.751l18.327-26.642 6.252-9.086v-.006l2.01-2.92a11.558 11.558 0 0 0 -1.179-14.988l2.674-2.674a5.748 5.748 0 0 0 0-8.132l-.1-.1 50.174-50.173a1.749 1.749 0 0 0 -.003-2.48zm-61.518 86.845-34.855-34.855 6.154-4.231 32.932 32.932zm-18.328 26.639-7.61-7.609 7.625-10.116a1.75 1.75 0 0 0 -2.8-2.108l-7.329 9.723-4.353-4.353 5.056-6.627a1.75 1.75 0 1 0 -2.783-2.124l-4.77 6.253-5.577-5.576a5.17 5.17 0 0 1 -1.325-4.988l1.927-7.13a1.751 1.751 0 0 0 -.656-1.87 1.771 1.771 0 0 0 -1.981-.059l-4.735 3.059a3.8 3.8 0 0 1 -4.725-.505l-9.13-9.131 23.707-16.316 35.77 35.77zm25.423-36.952-.843 1.227-32.021-32.021 1.26-.867a8.075 8.075 0 0 1 10.485.837l20.306 20.306a8.085 8.085 0 0 1 .813 10.518zm1.877-18.124-2.673 2.674-15.391-15.391 2.674-2.673a2.253 2.253 0 0 1 3.182 0l12.208 12.208a2.253 2.253 0 0 1 0 3.182zm-.1-8.234-7.054-7.054 48.935-48.936 7.053 7.053z"/></g></svg>
